# xmcd CD database file
#
# Track frame offsets:
#        150
#        24482
#        43247
#        59486
#        74806
#        90451
#        113989
#        136599
#        151678
#        174818
#        193107
#
# Disc length: 3125 seconds
#
# Revision: 0
# Processed by: cddbd v1.5.2PL0 Copyright (c) Steve Scherf et al.
# Submitted via: CUERipper 2.1.4
#
DISCID=900c330b
DTITLE=Stairway To Zinna - Asisi
DYEAR=2012
DGENRE=
TTITLE0=7 Kuadrat Keliling x 7
TTITLE1=Do Re Mi Bobo
TTITLE2=Berangkat
TTITLE3=Bintang Sinetron
TTITLE4=Rekreasi Penis
TTITLE5=Lompat Galaxy
TTITLE6=Menthol Condom
TTITLE7=Parah
TTITLE8=Cantik Mematikan
TTITLE9=Sarah Dumblang-Dumblang
TTITLE10=Tuhan ampuni dosa-dosanya dia pikir dia John Lennon
EXTD=
EXTT0=
EXTT1=
EXTT2=
EXTT3=
EXTT4=
EXTT5=
EXTT6=
EXTT7=
EXTT8=
EXTT9=
EXTT10=
PLAYORDER=
